<svg xmlns="http://www.w3.org/2000/svg" viewBox="0 0 100 100" fill="none">
  <defs><linearGradient id="g" x1="0" y1="0" x2="100" y2="100" gradientUnits="userSpaceOnUse"><stop offset="0%" stop-color="#4F46E5"/><stop offset="100%" stop-color="#7C5CFF"/></linearGradient></defs>
  <rect x="14" y="14" width="28" height="28" rx="5" fill="url(#g)" opacity=".18" stroke="#4F46E5" stroke-width="2"/>
  <rect x="58" y="14" width="28" height="28" rx="5" fill="none" stroke="#4F46E5" stroke-width="1.5" stroke-dasharray="4 3" opacity=".5"/>
  <rect x="14" y="58" width="28" height="28" rx="5" fill="none" stroke="#4F46E5" stroke-width="1.5" stroke-dasharray="4 3" opacity=".5"/>
  <rect x="58" y="58" width="28" height="28" rx="5" fill="url(#g)" opacity=".18" stroke="#4F46E5" stroke-width="2"/>
  <line x1="42" y1="28" x2="58" y2="28" stroke="#7C5CFF" stroke-width="2"/>
  <line x1="42" y1="72" x2="58" y2="72" stroke="#7C5CFF" stroke-width="2"/>
  <line x1="28" y1="42" x2="28" y2="58" stroke="#7C5CFF" stroke-width="2"/>
  <line x1="72" y1="42" x2="72" y2="58" stroke="#7C5CFF" stroke-width="2"/>
  <rect x="37" y="37" width="26" height="26" rx="6" fill="url(#g)"/>
  <line x1="50" y1="45" x2="50" y2="55" stroke="white" stroke-width="2.5" stroke-linecap="round"/>
  <path d="M45 48 Q50 45.5 55 48" stroke="white" stroke-width="2" fill="none" stroke-linecap="round"/>
  <path d="M45 52 Q50 54.5 55 52" stroke="white" stroke-width="2" fill="none" stroke-linecap="round"/>
</svg>